<svg width="450" height="80" viewBox="0 0 450 80" fill="none" xmlns="http://www.w3.org/2000/svg">
<path d="M16.6 80C13.6 80 10.9 79.3 8.5 77.9C6 76.5 4 74.5 2.6 72.1C1.2 69.7 0.5 67 0.5 64C0.5 58.9 2.5 54.7 6.5 51.4L37.1 27H4C3 27 2.2 26.7 1.5 26C0.8 25.4 0.5 24.5 0.5 23.5C0.5 22.6 0.8 21.8 1.5 21.1C2.2 20.4 3 20 4 20H47C48 20 48.8 20.4 49.5 21.1C50.1 21.9 50.5 22.7 50.5 23.6V76.5C50.5 77.5 50.1 78.3 49.5 79C48.8 79.7 48 80 47 80H16.6ZM7.5 64C7.5 66.5 8.4 68.6 10.2 70.4C12 72.2 14.1 73 16.6 73H29.8C32.3 73 34.6 72.4 36.7 71.2C38.7 70 40.4 68.3 41.6 66.2C42.8 64.2 43.5 61.9 43.5 59.3C43.5 56.5 42.7 54 41.3 51.8C39.9 49.7 38 48.1 35.7 47C33.4 45.9 31 45.4 28.4 45.6C25.8 45.8 23.4 46.8 21.2 48.6L10.9 56.9C8.6 58.8 7.5 61.2 7.5 64ZM82.5313 80C81.5313 80 80.7313 79.7 80.0313 79C79.3313 78.3 79.0312 77.5 79.0312 76.5V25C79.0312 21.7 78.2313 18.7 76.6313 16C75.0313 13.3 72.8313 11.1 70.1313 9.5C67.3313 7.9 64.3313 7 61.0313 7C60.0313 7 59.2313 6.7 58.5313 6C57.8313 5.3 57.5313 4.49999 57.5313 3.5C57.5313 2.6 57.8313 1.79999 58.5313 1.1C59.2313 0.399994 60.0313 -1.19209e-06 61.0313 -1.19209e-06H82.5313C83.5313 -1.19209e-06 84.3313 0.399994 85.0313 1.1C85.6313 1.79999 86.0313 2.6 86.0313 3.5V55C86.0313 58.3 86.8313 61.3 88.4313 64C90.0313 66.8 92.2313 69 95.0313 70.6C97.7313 72.2 100.731 73 104.031 73C104.931 73 105.731 73.4 106.431 74.1C107.131 74.8 107.531 75.6 107.531 76.5C107.531 77.5 107.131 78.3 106.431 79C105.731 79.7 104.931 80 104.031 80H82.5313ZM139.563 80C134.963 80 130.863 78.9 127.063 76.6C123.263 74.4 120.163 71.3 117.963 67.5C115.663 63.7 114.563 59.5 114.563 54.9C114.563 50.3 115.663 46.2 117.963 42.4C120.163 38.6 123.163 35.6 126.963 33.3C130.763 31.1 134.963 29.9 139.563 29.9C143.363 29.9 146.663 30.6 149.463 32C152.263 33.4 154.963 35.2 157.563 37.6V27H118.063C117.063 27 116.163 26.7 115.563 26C114.863 25.4 114.563 24.5 114.563 23.5C114.563 22.6 114.863 21.8 115.563 21.1C116.163 20.4 117.063 20 118.063 20H161.062C161.963 20 162.763 20.4 163.463 21.1C164.163 21.8 164.563 22.6 164.563 23.5V76.5C164.563 77.5 164.163 78.3 163.463 79C162.763 79.7 161.963 80 161.062 80C160.063 80 159.163 79.7 158.563 79C157.863 78.3 157.563 77.5 157.563 76.5V72.3C155.063 74.7 152.363 76.6 149.463 78C146.563 79.4 143.263 80 139.563 80ZM121.563 54.9C121.563 58.3 122.363 61.3 123.963 64C125.563 66.8 127.663 69 130.463 70.6C133.163 72.2 136.163 73 139.563 73C142.863 73 145.863 72.2 148.563 70.6C151.263 69 153.463 66.8 155.063 64C156.663 61.3 157.563 58.3 157.563 54.9C157.563 51.6 156.663 48.6 155.063 45.9C153.463 43.2 151.263 41 148.563 39.4C145.863 37.8 142.863 36.9 139.563 36.9C136.163 36.9 133.163 37.8 130.463 39.4C127.663 41 125.563 43.2 123.963 45.9C122.363 48.6 121.563 51.6 121.563 54.9ZM175.094 80C174.094 80 173.294 79.7 172.594 79C171.894 78.3 171.594 77.5 171.594 76.5V45C171.594 40.5 172.694 36.3 174.894 32.5C177.094 28.7 180.194 25.7 183.994 23.4C187.794 21.2 191.994 20 196.594 20C201.194 20 205.394 21.2 209.194 23.4C212.994 25.6 215.994 28.6 218.194 32.4C220.394 36.2 221.594 40.4 221.594 45V76.4C221.594 77.4 221.194 78.3 220.494 78.9C219.794 79.6 218.994 79.9 218.094 79.9C217.094 79.9 216.294 79.6 215.594 78.9C214.894 78.3 214.594 77.4 214.594 76.4V45C214.594 41.7 213.694 38.7 212.094 36C210.494 33.3 208.294 31.1 205.594 29.5C202.894 27.9 199.894 27 196.594 27C193.294 27 190.294 27.9 187.594 29.5C184.794 31.1 182.594 33.3 180.994 36C179.394 38.7 178.594 41.7 178.594 45V76.5C178.594 77.5 178.194 78.3 177.494 79C176.794 79.7 175.994 80 175.094 80ZM289.156 80C287.756 80 286.756 79.5 286.156 78.3C285.556 77.2 285.456 76.2 285.956 75.2L307.456 22.2C307.956 20.8 309.056 20 310.656 20C312.256 20 313.356 20.8 313.956 22.2L335.456 75.2C335.856 76.1 335.756 77.1 335.156 78.3C334.456 79.5 333.456 80 332.156 80H289.156ZM299.656 62C299.656 64 300.056 65.8 301.056 67.4C302.056 69.1 303.356 70.5 305.056 71.5C306.656 72.5 308.556 73 310.656 73C312.756 73 314.656 72.5 316.256 71.5C317.856 70.5 319.156 69.1 320.156 67.4C321.156 65.8 321.656 64 321.656 62C321.656 60.2 321.156 58.4 320.256 56.7C319.356 55.1 318.056 53.7 316.456 52.7C314.756 51.7 312.856 51.1 310.656 51.1C308.456 51.1 306.456 51.7 304.856 52.7C303.256 53.7 301.956 55.1 301.056 56.7C300.056 58.4 299.656 60.2 299.656 62ZM355.688 80C353.288 80 351.088 79.5 349.088 78.3C347.088 77.1 345.588 75.6 344.388 73.6C343.188 71.6 342.688 69.4 342.688 67V33C342.688 30.6 343.188 28.5 344.388 26.5C345.588 24.5 347.088 23 349.088 21.8C351.088 20.6 353.288 20 355.688 20H379.688C382.088 20 384.188 20.6 386.188 21.8C388.188 23 389.687 24.5 390.888 26.5C392.088 28.5 392.688 30.6 392.688 33V67C392.688 69.4 392.088 71.6 390.888 73.6C389.687 75.6 388.188 77.1 386.188 78.3C384.188 79.5 382.088 80 379.688 80H355.688ZM349.688 67C349.688 68.7 350.188 70.1 351.388 71.3C352.588 72.5 353.988 73 355.688 73H379.688C381.288 73 382.688 72.5 383.888 71.3C385.088 70.1 385.688 68.7 385.688 67V33C385.688 31.4 385.088 30 383.888 28.8C382.688 27.6 381.288 27 379.688 27H355.688C353.988 27 352.588 27.6 351.388 28.8C350.188 30 349.688 31.4 349.688 33V67ZM352.588 66.6V33.4C352.588 32.5 352.888 31.7 353.588 31C354.188 30.3 355.088 29.9 356.088 29.9H370.588C372.788 29.9 374.888 30.5 376.688 31.6C378.488 32.7 379.988 34.2 381.088 36C382.188 37.8 382.788 39.9 382.788 42.1C382.788 44.9 381.888 47.4 380.188 49.6C378.488 51.8 376.388 53.2 373.788 53.9L382.088 64.5C382.688 65.3 382.888 66.1 382.788 67.1C382.588 68.1 382.188 68.8 381.488 69.4C380.688 70 379.888 70.2 378.888 70.1C377.888 70 377.188 69.6 376.588 68.8L365.188 54.3H359.588V66.6C359.588 67.6 359.188 68.5 358.488 69.1C357.788 69.8 356.988 70.1 356.088 70.1C355.088 70.1 354.188 69.8 353.588 69.1C352.888 68.5 352.588 67.6 352.588 66.6ZM359.588 47.3H370.588C371.988 47.3 373.288 46.8 374.288 45.8C375.288 44.8 375.788 43.6 375.788 42.1C375.788 40.7 375.288 39.4 374.288 38.4C373.288 37.4 371.988 36.9 370.588 36.9H359.588V47.3ZM413.219 80C410.719 80 408.419 79.4 406.419 78.2C404.319 77 402.719 75.3 401.519 73.2C400.319 71.2 399.719 68.9 399.719 66.4C399.719 64.7 400.019 62.9 400.819 61.1L415.619 27H403.219C402.219 27 401.319 26.7 400.719 26C400.019 25.4 399.719 24.5 399.719 23.5C399.719 22.6 400.019 21.8 400.719 21.1C401.319 20.4 402.219 20 403.219 20H418.619L426.319 2.19999C426.619 1.4 427.219 0.799994 428.219 0.399994C429.119 0.0999975 430.019 0.0999975 430.919 0.399994C431.819 0.799994 432.419 1.5 432.719 2.4C433.019 3.3 433.019 4.2 432.719 4.99999L426.219 20H446.219C447.119 20 447.919 20.4 448.619 21.1C449.319 21.8 449.719 22.6 449.719 23.5C449.719 24.5 449.319 25.4 448.619 26C447.919 26.7 447.119 27 446.219 27H423.219L407.919 62.3C407.519 63.1 407.219 63.8 407.019 64.5C406.819 65.2 406.719 65.8 406.719 66.4C406.719 68.2 407.319 69.8 408.619 71.1C409.819 72.4 411.419 73 413.219 73H419.519C421.319 73 422.819 72.4 424.119 71.1C425.319 69.8 426.019 68.2 426.019 66.4V50.1C426.019 49.2 426.319 48.4 427.019 47.7C427.719 47 428.519 46.6 429.519 46.6C430.419 46.6 431.219 47 431.919 47.7C432.619 48.4 433.019 49.2 433.019 50.1V66.4C433.019 68.9 432.319 71.2 431.119 73.2C429.919 75.3 428.219 77 426.219 78.2C424.219 79.4 421.919 80 419.519 80H413.219Z" fill="#529ECC"/>
</svg>
